<svg width="291" height="100" viewBox="0 0 291 100" fill="none" xmlns="http://www.w3.org/2000/svg">
<line x1="112.5" y1="88" x2="112.5" y2="13" stroke="#3F5565" stroke-width="3"/>
<path d="M134.818 42V18.7273H148.864V21.2273H137.636V29.0909H148.136V31.5909H137.636V39.5H149.045V42H134.818ZM154.898 18.7273L161.807 38.3182H162.08L168.989 18.7273H171.943L163.398 42H160.489L151.943 18.7273H154.898ZM175.568 42V18.7273H189.614V21.2273H178.386V29.0909H188.886V31.5909H178.386V39.5H189.795V42H175.568ZM213.148 18.7273V42H210.42L197.739 23.7273H197.511V42H194.693V18.7273H197.42L210.148 37.0455H210.375V18.7273H213.148ZM217.514 21.2273V18.7273H234.969V21.2273H227.651V42H224.832V21.2273H217.514ZM134.818 57.7273H138.182L146.091 77.0455H146.364L154.273 57.7273H157.636V81H155V63.3182H154.773L147.5 81H144.955L137.682 63.3182H137.455V81H134.818V57.7273ZM164.241 81H161.287L169.832 57.7273H172.741L181.287 81H178.332L171.378 61.4091H171.196L164.241 81ZM165.332 71.9091H177.241V74.4091H165.332V71.9091ZM203.366 57.7273V81H200.639L187.957 62.7273H187.73V81H184.912V57.7273H187.639L200.366 76.0455H200.594V57.7273H203.366ZM209.96 81H207.006L215.551 57.7273H218.46L227.006 81H224.051L217.097 61.4091H216.915L209.96 81ZM211.051 71.9091H222.96V74.4091H211.051V71.9091ZM245.446 65C245.196 64.2348 244.866 63.5492 244.457 62.9432C244.056 62.3295 243.575 61.8068 243.014 61.375C242.461 60.9432 241.832 60.6136 241.128 60.3864C240.423 60.1591 239.651 60.0455 238.81 60.0455C237.431 60.0455 236.177 60.4015 235.048 61.1136C233.92 61.8258 233.022 62.875 232.355 64.2614C231.688 65.6477 231.355 67.3485 231.355 69.3636C231.355 71.3788 231.692 73.0795 232.366 74.4659C233.041 75.8523 233.954 76.9015 235.105 77.6136C236.257 78.3258 237.552 78.6818 238.991 78.6818C240.325 78.6818 241.499 78.3977 242.514 77.8295C243.537 77.2538 244.332 76.4432 244.901 75.3977C245.476 74.3447 245.764 73.1061 245.764 71.6818L246.628 71.8636H239.628V69.3636H248.491V71.8636C248.491 73.7803 248.082 75.447 247.264 76.8636C246.454 78.2803 245.332 79.3788 243.901 80.1591C242.476 80.9318 240.84 81.3182 238.991 81.3182C236.931 81.3182 235.12 80.8333 233.56 79.8636C232.007 78.8939 230.795 77.5152 229.923 75.7273C229.06 73.9394 228.628 71.8182 228.628 69.3636C228.628 67.5227 228.874 65.8674 229.366 64.3977C229.866 62.9205 230.571 61.6629 231.48 60.625C232.389 59.5871 233.465 58.7917 234.707 58.2386C235.95 57.6856 237.317 57.4091 238.81 57.4091C240.037 57.4091 241.181 57.5947 242.241 57.9659C243.31 58.3295 244.26 58.8485 245.094 59.5227C245.935 60.1894 246.635 60.9886 247.196 61.9205C247.757 62.8447 248.143 63.8712 248.355 65H245.446ZM253.318 81V57.7273H267.364V60.2273H256.136V68.0909H266.636V70.5909H256.136V78.5H267.545V81H253.318ZM272.443 81V57.7273H280.307C282.125 57.7273 283.617 58.0379 284.784 58.6591C285.951 59.2727 286.814 60.1174 287.375 61.1932C287.936 62.2689 288.216 63.4924 288.216 64.8636C288.216 66.2348 287.936 67.4508 287.375 68.5114C286.814 69.572 285.955 70.4053 284.795 71.0114C283.636 71.6098 282.155 71.9091 280.352 71.9091H273.989V69.3636H280.261C281.504 69.3636 282.504 69.1818 283.261 68.8182C284.027 68.4545 284.58 67.9394 284.92 67.2727C285.269 66.5985 285.443 65.7955 285.443 64.8636C285.443 63.9318 285.269 63.1174 284.92 62.4205C284.572 61.7235 284.015 61.1856 283.25 60.8068C282.485 60.4205 281.473 60.2273 280.216 60.2273H275.261V81H272.443ZM283.398 70.5455L289.125 81H285.852L280.216 70.5455H283.398Z" fill="#3F5565"/>
<path d="M93.75 87.5C93.75 87.5 100 87.5 100 81.25C100 75 93.75 56.25 68.75 56.25C43.75 56.25 37.5 75 37.5 81.25C37.5 87.5 43.75 87.5 43.75 87.5H93.75ZM43.8875 81.25L43.75 81.225C43.7562 79.575 44.7938 74.7875 48.5 70.475C51.95 66.4312 58.0125 62.5 68.75 62.5C79.4812 62.5 85.5437 66.4375 89 70.475C92.7063 74.7875 93.7375 79.5812 93.75 81.225L93.7 81.2375L93.6125 81.25H43.8875ZM68.75 43.75C72.0652 43.75 75.2446 42.433 77.5888 40.0888C79.933 37.7446 81.25 34.5652 81.25 31.25C81.25 27.9348 79.933 24.7554 77.5888 22.4112C75.2446 20.067 72.0652 18.75 68.75 18.75C65.4348 18.75 62.2554 20.067 59.9112 22.4112C57.567 24.7554 56.25 27.9348 56.25 31.25C56.25 34.5652 57.567 37.7446 59.9112 40.0888C62.2554 42.433 65.4348 43.75 68.75 43.75ZM87.5 31.25C87.5 33.7123 87.015 36.1505 86.0727 38.4253C85.1305 40.7002 83.7494 42.7672 82.0083 44.5083C80.2672 46.2494 78.2002 47.6305 75.9253 48.5727C73.6505 49.515 71.2123 50 68.75 50C66.2877 50 63.8495 49.515 61.5747 48.5727C59.2998 47.6305 57.2328 46.2494 55.4917 44.5083C53.7506 42.7672 52.3695 40.7002 51.4273 38.4253C50.485 36.1505 50 33.7123 50 31.25C50 26.2772 51.9754 21.5081 55.4917 17.9917C59.0081 14.4754 63.7772 12.5 68.75 12.5C73.7228 12.5 78.492 14.4754 82.0083 17.9917C85.5246 21.5081 87.5 26.2772 87.5 31.25ZM43.35 58C40.8485 57.2182 38.2719 56.7008 35.6625 56.4562C34.1961 56.3132 32.7234 56.2444 31.25 56.25C6.25 56.25 0 75 0 81.25C0 85.4167 2.08333 87.5 6.25 87.5H32.6C31.6739 85.5487 31.2119 83.4096 31.25 81.25C31.25 74.9375 33.6063 68.4875 38.0625 63.1C39.5812 61.2625 41.35 59.5438 43.35 58ZM30.75 62.5C27.0533 68.059 25.0553 74.5742 25 81.25H6.25C6.25 79.625 7.275 74.8125 11 70.475C14.4062 66.5 20.325 62.625 30.75 62.5063V62.5ZM9.375 34.375C9.375 29.4022 11.3504 24.6331 14.8667 21.1167C18.3831 17.6004 23.1522 15.625 28.125 15.625C33.0978 15.625 37.8669 17.6004 41.3833 21.1167C44.8996 24.6331 46.875 29.4022 46.875 34.375C46.875 39.3478 44.8996 44.1169 41.3833 47.6333C37.8669 51.1496 33.0978 53.125 28.125 53.125C23.1522 53.125 18.3831 51.1496 14.8667 47.6333C11.3504 44.1169 9.375 39.3478 9.375 34.375ZM28.125 21.875C24.8098 21.875 21.6304 23.192 19.2862 25.5362C16.942 27.8804 15.625 31.0598 15.625 34.375C15.625 37.6902 16.942 40.8696 19.2862 43.2138C21.6304 45.558 24.8098 46.875 28.125 46.875C31.4402 46.875 34.6196 45.558 36.9638 43.2138C39.308 40.8696 40.625 37.6902 40.625 34.375C40.625 31.0598 39.308 27.8804 36.9638 25.5362C34.6196 23.192 31.4402 21.875 28.125 21.875Z" fill="#3F5565"/>
</svg>
